<svg id="svg" version="1.1" xmlns="http://www.w3.org/2000/svg" xmlns:xlink="http://www.w3.org/1999/xlink" width="400" height="400" viewBox="0, 0, 400,400"><g id="svgg"><path id="path0" d="M55.774 115.708 C 55.637 116.190,54.960 118.758,54.270 121.417 C 53.580 124.075,52.417 128.537,51.686 131.333 C 50.956 134.129,48.848 142.192,47.003 149.250 C 45.158 156.308,42.944 164.783,42.082 168.083 C 41.221 171.383,40.331 174.777,40.104 175.625 L 39.691 177.167 197.212 177.125 L 354.734 177.083 356.014 172.167 C 356.718 169.462,358.911 161.063,360.888 153.500 C 366.964 130.248,370.172 117.973,370.512 116.667 C 370.691 115.979,370.880 115.285,370.930 115.125 C 371.018 114.847,363.447 114.833,213.523 114.833 L 56.024 114.833 55.774 115.708 M97.733 125.042 C 97.783 125.523,98.016 130.154,98.252 135.333 C 98.487 140.512,98.788 146.962,98.919 149.667 C 99.051 152.371,99.273 157.096,99.412 160.167 C 99.552 163.237,99.697 166.181,99.734 166.708 L 99.802 167.667 94.749 167.667 L 89.696 167.667 89.604 167.042 C 89.553 166.698,89.465 165.742,89.409 164.917 C 89.353 164.092,89.271 163.285,89.226 163.125 C 89.151 162.857,88.796 162.833,84.821 162.833 L 80.499 162.833 79.294 165.250 L 78.089 167.667 72.955 167.667 C 68.119 167.667,67.830 167.650,67.975 167.375 C 68.059 167.215,69.571 164.046,71.335 160.333 C 74.486 153.699,84.881 131.838,86.750 127.917 C 87.274 126.817,87.881 125.523,88.099 125.042 L 88.496 124.167 93.069 124.167 L 97.643 124.167 97.733 125.042 M124.894 124.458 C 124.940 124.619,125.148 126.006,125.356 127.542 C 125.565 129.077,125.781 130.333,125.836 130.333 C 125.892 130.333,126.671 129.064,127.566 127.513 C 128.462 125.961,129.282 124.572,129.389 124.426 C 129.560 124.193,130.151 124.166,134.357 124.206 L 139.130 124.250 138.213 125.833 C 131.878 136.774,127.915 143.676,127.733 144.083 C 127.562 144.467,122.667 167.166,122.667 167.576 C 122.667 167.626,120.523 167.667,117.903 167.667 L 113.140 167.667 113.261 167.125 C 113.328 166.827,114.443 161.578,115.740 155.460 L 118.098 144.338 116.722 134.710 C 115.965 129.416,115.343 124.877,115.339 124.625 L 115.333 124.167 120.072 124.167 C 124.442 124.167,124.817 124.189,124.894 124.458 M168.667 124.377 C 168.667 124.554,167.977 127.853,166.906 132.792 L 166.644 134.000 162.847 134.000 L 159.049 134.000 158.438 136.792 C 158.102 138.327,157.783 139.752,157.728 139.958 L 157.628 140.333 161.397 140.333 C 164.301 140.333,165.167 140.381,165.167 140.542 C 165.168 140.656,164.737 142.831,164.211 145.375 L 163.255 150.000 159.467 150.000 L 155.680 150.000 155.522 150.625 C 155.289 151.554,153.996 157.563,153.998 157.708 C 153.999 157.777,155.688 157.833,157.750 157.833 C 159.813 157.833,161.499 157.890,161.499 157.958 C 161.498 158.027,161.048 160.207,160.499 162.803 C 159.949 165.399,159.500 167.555,159.500 167.595 C 159.500 167.634,155.712 167.667,151.083 167.667 C 144.836 167.667,142.667 167.617,142.667 167.474 C 142.667 167.369,143.346 164.087,144.177 160.183 C 146.413 149.672,151.300 126.766,151.603 125.375 L 151.867 124.167 160.267 124.167 C 166.908 124.167,168.667 124.211,168.667 124.377 M203.047 124.540 C 205.053 125.064,206.324 126.307,206.331 127.750 C 206.336 128.903,202.034 148.612,201.583 149.501 C 200.697 151.250,197.678 153.000,195.548 153.000 C 195.026 153.000,195.037 153.077,196.072 156.637 C 198.635 165.455,199.167 167.319,199.167 167.485 C 199.167 167.612,197.649 167.667,194.112 167.667 L 189.057 167.667 187.240 161.664 L 185.423 155.662 184.158 161.623 L 182.894 167.583 178.101 167.628 C 173.588 167.669,173.314 167.655,173.398 167.378 C 173.447 167.216,175.361 158.271,177.651 147.500 C 179.942 136.729,181.975 127.167,182.170 126.250 C 182.365 125.333,182.557 124.483,182.596 124.359 C 182.707 124.014,201.674 124.182,203.047 124.540 M266.737 126.792 C 266.432 128.235,265.968 130.429,265.705 131.667 L 265.228 133.917 261.409 134.000 L 257.590 134.083 256.908 137.167 L 256.225 140.250 260.040 140.295 C 263.567 140.336,263.847 140.361,263.768 140.628 C 263.676 140.934,261.833 149.788,261.833 149.921 C 261.833 149.965,260.116 150.000,258.018 150.000 L 254.203 150.000 254.115 150.375 C 254.066 150.581,253.218 154.556,252.231 159.208 L 250.435 167.667 245.801 167.667 C 243.252 167.667,241.167 167.639,241.167 167.604 C 241.167 167.570,242.444 161.551,244.005 154.229 C 245.567 146.907,247.635 137.206,248.602 132.671 C 249.569 128.136,250.396 124.367,250.440 124.296 C 250.484 124.225,254.293 124.167,258.905 124.167 L 267.291 124.167 266.737 126.792 M290.667 124.411 C 290.667 124.622,288.109 136.679,284.610 152.961 L 283.561 157.839 287.819 157.794 L 292.077 157.750 294.349 147.083 C 295.598 141.217,297.207 133.660,297.923 130.292 L 299.225 124.167 303.946 124.167 C 307.935 124.167,308.667 124.204,308.667 124.406 C 308.667 124.619,303.700 148.145,303.088 150.833 C 302.952 151.429,302.348 154.242,301.746 157.083 C 300.158 164.585,299.310 166.288,296.603 167.419 C 295.653 167.816,275.720 167.787,274.878 167.387 C 273.807 166.879,272.952 165.104,272.965 163.417 C 272.970 162.753,277.141 142.813,280.575 127.032 C 280.900 125.537,281.167 124.281,281.167 124.240 C 281.167 124.200,283.304 124.167,285.917 124.167 C 289.976 124.167,290.667 124.202,290.667 124.411 M339.391 124.625 C 339.328 124.877,338.853 127.071,338.338 129.500 L 337.400 133.917 333.578 134.000 L 329.756 134.083 329.074 137.167 L 328.392 140.250 332.206 140.295 C 335.732 140.336,336.014 140.361,335.937 140.628 C 335.840 140.961,334.000 149.783,334.000 149.913 C 334.000 149.961,332.280 150.000,330.178 150.000 L 326.357 150.000 326.162 150.958 C 325.990 151.804,324.976 156.458,324.746 157.458 L 324.660 157.833 328.467 157.833 L 332.274 157.833 331.333 162.292 C 330.815 164.744,330.339 166.956,330.276 167.208 L 330.160 167.667 321.747 167.667 C 317.119 167.667,313.333 167.642,313.333 167.613 C 313.333 167.583,314.835 160.514,316.671 151.904 C 318.507 143.294,320.577 133.587,321.271 130.333 C 321.964 127.079,322.567 124.360,322.609 124.292 C 322.652 124.223,326.471 124.167,331.096 124.167 L 339.506 124.167 339.391 124.625 M188.946 139.228 C 188.334 142.103,187.833 144.541,187.833 144.645 C 187.833 144.777,188.645 144.833,190.572 144.833 L 193.310 144.833 193.507 143.875 C 193.616 143.348,194.133 140.910,194.656 138.458 L 195.607 134.000 192.833 134.000 L 190.059 134.000 188.946 139.228 M220.945 136.737 C 220.895 136.868,219.574 138.892,218.010 141.235 C 216.446 143.578,215.167 145.535,215.167 145.583 C 215.167 145.632,216.428 147.564,217.969 149.877 C 219.510 152.191,220.827 154.177,220.896 154.292 C 220.993 154.455,220.378 154.500,218.037 154.500 L 215.054 154.500 212.110 150.084 C 210.491 147.655,209.167 145.629,209.167 145.582 C 209.167 145.534,210.517 143.471,212.168 140.998 L 215.170 136.500 218.103 136.500 C 220.571 136.500,221.021 136.538,220.945 136.737 M229.611 136.737 C 229.561 136.868,228.236 138.898,226.667 141.249 C 225.098 143.601,223.837 145.575,223.865 145.637 C 223.894 145.699,225.131 147.565,226.614 149.782 C 228.098 152.000,229.394 153.969,229.495 154.157 C 229.677 154.497,229.654 154.500,226.714 154.498 L 223.750 154.497 221.837 151.623 C 220.785 150.043,219.449 148.025,218.869 147.138 L 217.813 145.526 220.825 141.013 L 223.836 136.500 226.769 136.500 C 229.238 136.500,229.688 136.538,229.611 136.737 M238.333 136.641 C 238.333 136.718,237.022 138.753,235.420 141.162 C 233.817 143.571,232.556 145.626,232.618 145.729 C 232.679 145.832,233.990 147.809,235.531 150.123 C 237.072 152.436,238.333 154.367,238.333 154.414 C 238.333 154.461,237.002 154.498,235.375 154.496 L 232.417 154.492 229.445 150.014 L 226.473 145.536 229.488 141.018 L 232.503 136.500 235.418 136.500 C 237.022 136.500,238.333 136.563,238.333 136.641 M86.757 149.214 C 85.862 151.159,85.092 152.844,85.047 152.958 C 84.984 153.118,85.440 153.167,87.007 153.167 L 89.049 153.167 88.946 151.792 C 88.889 151.035,88.791 149.383,88.729 148.119 C 88.666 146.855,88.563 145.789,88.500 145.750 C 88.437 145.711,87.652 147.270,86.757 149.214 M55.776 183.375 C 55.725 183.581,54.324 190.125,52.664 197.917 C 46.678 226.009,38.298 265.321,35.841 276.833 C 34.462 283.296,33.334 288.640,33.334 288.708 C 33.333 288.777,42.483 288.833,53.667 288.833 C 64.850 288.833,74.000 288.782,74.000 288.720 C 74.000 288.620,75.701 280.528,78.175 268.856 C 78.629 266.714,79.000 264.933,79.000 264.898 C 79.000 264.862,74.950 264.833,70.000 264.833 C 62.739 264.833,61.000 264.792,61.000 264.617 C 61.000 264.498,62.420 257.767,64.155 249.659 C 65.890 241.551,68.744 228.204,70.498 220.000 C 72.251 211.796,74.732 200.195,76.010 194.221 C 77.288 188.246,78.333 183.278,78.333 183.179 C 78.333 183.053,75.000 183.000,67.101 183.000 L 55.869 183.000 55.776 183.375 M106.268 183.292 C 106.220 183.452,103.556 195.921,100.347 211.000 C 94.568 238.162,86.704 275.070,86.321 276.831 C 85.368 281.213,88.446 287.672,91.917 288.577 C 93.172 288.903,141.325 288.971,142.867 288.648 C 146.534 287.881,151.896 281.993,153.475 277.000 C 153.694 276.309,153.786 275.880,161.603 239.167 C 164.950 223.446,168.016 209.046,168.417 207.167 C 172.609 187.503,173.500 183.293,173.500 183.157 C 173.500 183.060,169.089 183.000,161.951 183.000 L 150.403 183.000 146.451 201.542 C 144.278 211.740,140.546 229.233,138.159 240.417 C 135.771 251.600,133.616 261.706,133.369 262.875 L 132.922 265.000 122.544 265.000 C 115.060 265.000,112.167 264.948,112.167 264.815 C 112.167 264.714,113.213 259.745,114.492 253.774 C 115.771 247.802,119.637 229.717,123.085 213.583 C 126.532 197.450,129.415 183.969,129.492 183.625 L 129.631 183.000 117.994 183.000 C 107.054 183.000,106.351 183.018,106.268 183.292 M183.333 183.078 C 183.333 183.121,182.018 189.327,180.410 196.870 C 178.802 204.412,175.168 221.458,172.335 234.750 C 169.502 248.042,165.755 265.619,164.009 273.811 C 162.262 282.004,160.833 288.735,160.833 288.770 C 160.833 288.805,166.002 288.833,172.320 288.833 L 183.806 288.833 183.994 287.958 C 184.097 287.477,185.493 280.900,187.096 273.342 C 188.699 265.784,190.030 259.581,190.055 259.556 C 190.079 259.532,191.475 266.016,193.158 273.965 C 194.841 281.913,196.252 288.510,196.294 288.625 C 196.384 288.874,216.833 288.936,216.833 288.687 C 216.833 288.607,218.486 280.788,220.505 271.312 C 222.525 261.836,226.535 243.021,229.417 229.500 C 232.299 215.979,235.671 200.154,236.910 194.333 C 238.149 188.512,239.202 183.581,239.251 183.375 L 239.340 183.000 227.840 183.000 L 216.340 183.000 216.251 183.375 C 216.148 183.807,213.460 196.394,210.483 210.375 C 209.356 215.669,208.384 219.944,208.323 219.875 C 208.262 219.806,207.939 217.425,207.607 214.583 C 207.275 211.742,206.364 204.017,205.583 197.417 C 204.803 190.817,204.123 185.042,204.072 184.583 C 204.021 184.125,203.945 183.581,203.903 183.375 L 203.827 183.000 193.580 183.000 C 187.944 183.000,183.333 183.035,183.333 183.078 M248.936 183.292 C 248.889 183.452,247.950 187.821,246.849 193.000 C 245.748 198.179,242.329 214.229,239.250 228.667 C 228.578 278.711,226.500 288.491,226.500 288.663 C 226.500 288.780,232.992 288.821,247.027 288.792 L 267.554 288.750 270.074 276.833 L 272.595 264.917 263.332 264.833 L 254.070 264.750 255.282 259.167 C 255.949 256.096,256.882 251.802,257.355 249.625 L 258.216 245.667 267.525 245.667 C 272.847 245.667,276.833 245.603,276.833 245.518 C 276.833 245.336,281.480 222.865,281.602 222.458 C 281.684 222.183,281.170 222.167,272.428 222.167 C 265.767 222.167,263.167 222.115,263.167 221.982 C 263.167 221.825,266.169 208.130,266.442 207.042 L 266.536 206.667 275.810 206.666 L 285.083 206.666 287.594 194.833 L 290.105 183.000 269.564 183.000 C 250.145 183.000,249.018 183.016,248.936 183.292 M307.417 183.311 C 303.908 184.319,300.411 188.070,298.326 193.061 C 296.764 196.798,294.577 206.438,294.728 208.917 C 294.885 211.495,295.886 215.982,296.621 217.406 C 296.760 217.675,297.620 220.188,298.533 222.990 C 299.445 225.791,300.705 229.658,301.334 231.583 C 301.962 233.508,304.472 241.210,306.910 248.697 C 309.348 256.185,311.484 262.635,311.657 263.031 C 311.947 263.694,312.065 264.268,312.018 264.792 C 312.004 264.957,308.980 265.000,297.503 265.000 L 283.006 265.000 282.917 265.375 C 282.662 266.447,278.000 288.533,278.000 288.671 C 278.000 288.907,321.566 288.890,323.266 288.654 C 327.236 288.102,330.534 285.261,333.063 280.214 C 335.642 275.067,337.820 264.326,337.333 259.158 C 337.017 255.808,337.458 257.319,331.001 237.500 C 322.414 211.142,321.798 209.263,321.480 208.452 C 321.308 208.013,321.167 207.433,321.167 207.161 L 321.167 206.669 335.194 206.626 L 349.222 206.583 350.004 202.917 C 350.434 200.900,351.103 197.750,351.491 195.917 C 351.878 194.083,352.639 190.507,353.181 187.970 C 353.723 185.433,354.167 183.277,354.167 183.179 C 354.167 182.833,308.632 182.962,307.417 183.311 " stroke="none" fill="#1c1c2c" fill-rule="evenodd"></path><path id="path1" d="M87.474 126.458 C 86.254 129.041,76.851 148.816,71.727 159.578 C 69.677 163.883,68.000 167.465,68.000 167.536 C 68.000 167.608,70.250 167.667,72.999 167.667 L 77.998 167.667 79.251 165.164 L 80.505 162.661 84.877 162.706 L 89.250 162.750 89.369 164.167 C 89.435 164.946,89.534 166.052,89.591 166.625 L 89.693 167.667 94.680 167.667 L 99.667 167.667 99.664 166.708 C 99.662 166.181,99.586 164.212,99.495 162.333 C 99.054 153.204,97.987 130.676,97.909 128.833 C 97.861 127.688,97.780 126.206,97.730 125.542 L 97.638 124.333 93.058 124.333 L 88.478 124.333 87.474 126.458 M115.334 124.542 C 115.335 124.656,115.964 129.159,116.733 134.547 L 118.132 144.344 115.757 155.547 C 114.451 161.709,113.345 166.956,113.298 167.208 L 113.213 167.667 117.908 167.667 L 122.603 167.667 124.658 157.958 C 125.789 152.619,126.917 147.313,127.166 146.167 L 127.619 144.083 130.751 138.667 C 132.473 135.688,134.947 131.412,136.248 129.167 C 137.550 126.921,138.704 124.915,138.813 124.708 L 139.012 124.333 134.214 124.339 L 129.417 124.344 127.692 127.339 C 126.744 128.986,125.915 130.366,125.850 130.406 C 125.785 130.446,125.562 129.228,125.355 127.698 C 125.147 126.168,124.940 124.785,124.894 124.625 C 124.786 124.248,115.333 124.165,115.334 124.542 M151.672 125.208 C 151.568 125.690,150.245 131.896,148.733 139.000 C 146.012 151.788,145.336 154.948,143.574 163.133 C 143.075 165.452,142.667 167.421,142.667 167.508 C 142.667 167.606,145.867 167.667,151.053 167.667 L 159.438 167.667 160.397 163.125 C 160.924 160.627,161.396 158.415,161.446 158.208 L 161.536 157.833 157.768 157.833 C 154.287 157.833,154.001 157.811,154.009 157.542 C 154.014 157.381,154.372 155.637,154.805 153.667 L 155.592 150.083 159.408 150.000 L 163.225 149.917 164.190 145.333 C 164.722 142.813,165.158 140.656,165.161 140.542 C 165.165 140.381,164.306 140.333,161.403 140.333 L 157.640 140.333 157.753 139.792 C 157.815 139.494,158.121 138.099,158.433 136.692 C 158.745 135.285,159.000 134.104,159.000 134.067 C 159.000 134.030,160.725 134.000,162.833 134.000 C 164.942 134.000,166.667 133.944,166.668 133.875 C 166.668 133.806,167.118 131.651,167.668 129.086 C 168.217 126.521,168.667 124.402,168.667 124.378 C 168.667 124.353,164.885 124.333,160.264 124.333 L 151.861 124.333 151.672 125.208 M182.588 124.536 C 182.528 124.713,181.654 128.805,178.572 143.333 C 178.446 143.929,178.189 145.129,178.001 146.000 C 175.998 155.299,173.500 167.166,173.500 167.388 C 173.500 167.642,173.915 167.667,178.163 167.667 L 182.827 167.667 182.918 167.292 C 183.153 166.324,185.333 155.932,185.333 155.782 C 185.333 155.310,185.641 156.238,187.250 161.570 C 188.211 164.755,189.039 167.429,189.092 167.513 C 189.194 167.679,199.167 167.734,199.167 167.569 C 199.167 167.470,195.176 153.562,195.056 153.242 C 195.017 153.140,195.504 152.980,196.223 152.860 C 198.592 152.461,200.788 151.062,201.569 149.454 C 201.937 148.697,205.482 132.816,206.201 128.705 C 206.531 126.820,205.607 125.384,203.641 124.723 C 202.474 124.330,182.717 124.155,182.588 124.536 M247.760 136.792 C 246.305 143.644,244.942 150.037,244.731 151.000 C 244.520 151.962,243.670 155.938,242.841 159.833 C 242.013 163.729,241.295 167.087,241.247 167.294 L 241.159 167.672 245.772 167.628 L 250.386 167.583 250.687 166.250 C 250.853 165.517,251.667 161.729,252.496 157.833 C 253.325 153.938,254.042 150.581,254.088 150.375 L 254.173 150.000 257.979 150.000 L 261.786 150.000 262.232 147.792 C 262.478 146.577,262.926 144.402,263.228 142.958 L 263.777 140.333 259.954 140.333 C 256.965 140.333,256.148 140.288,256.209 140.125 C 256.252 140.010,256.575 138.585,256.926 136.958 L 257.565 134.000 261.355 134.000 C 264.820 134.000,265.151 133.975,265.229 133.708 C 265.363 133.251,267.167 124.669,267.167 124.492 C 267.167 124.394,263.970 124.333,258.786 124.333 L 250.405 124.333 247.760 136.792 M281.109 124.708 C 281.057 124.915,280.258 128.646,279.334 133.000 C 278.409 137.354,277.434 141.929,277.166 143.167 C 272.333 165.527,272.426 164.781,274.234 166.778 L 274.963 167.583 285.106 167.634 C 297.663 167.696,297.081 167.790,298.966 165.412 C 300.291 163.741,300.323 163.625,303.083 150.649 C 304.515 143.921,305.755 138.117,305.841 137.750 C 306.091 136.674,308.667 124.531,308.667 124.428 C 308.667 124.376,306.545 124.333,303.952 124.333 L 299.238 124.333 296.364 137.792 C 294.783 145.194,293.174 152.731,292.789 154.542 L 292.088 157.833 287.811 157.833 L 283.533 157.833 283.852 156.375 C 284.027 155.573,284.280 154.392,284.414 153.750 C 284.548 153.108,284.843 151.721,285.069 150.667 C 286.400 144.468,290.667 124.436,290.667 124.389 C 290.667 124.358,288.537 124.333,285.935 124.333 L 281.203 124.333 281.109 124.708 M322.109 126.542 C 320.539 133.969,317.459 148.420,317.250 149.333 C 317.114 149.929,316.216 154.129,315.253 158.667 C 314.291 163.204,313.464 167.085,313.415 167.292 L 313.327 167.667 321.744 167.667 L 330.160 167.667 330.246 167.292 C 330.293 167.085,330.597 165.642,330.921 164.083 C 331.246 162.525,331.659 160.588,331.839 159.779 C 332.019 158.970,332.167 158.201,332.167 158.071 C 332.167 157.872,331.551 157.833,328.417 157.833 C 326.354 157.833,324.667 157.797,324.667 157.754 C 324.667 157.662,326.116 151.011,326.268 150.405 L 326.369 150.000 330.156 150.000 L 333.943 150.000 334.934 145.208 L 335.925 140.417 332.112 140.372 C 329.178 140.337,328.318 140.280,328.377 140.122 C 328.419 140.009,328.741 138.585,329.093 136.958 L 329.731 134.000 333.521 134.000 C 336.986 134.000,337.318 133.975,337.397 133.708 C 337.538 133.232,339.333 124.704,339.333 124.511 C 339.333 124.388,336.764 124.333,330.954 124.333 L 322.575 124.333 322.109 126.542 M195.605 134.292 C 195.559 134.452,195.140 136.383,194.673 138.583 C 194.207 140.783,193.707 143.090,193.561 143.708 L 193.297 144.833 190.507 144.833 L 187.717 144.833 188.030 143.375 C 189.021 138.757,190.000 134.133,190.000 134.071 C 190.000 134.032,191.280 134.000,192.845 134.000 C 195.474 134.000,195.683 134.022,195.605 134.292 M88.918 150.858 L 89.037 153.167 87.019 153.167 C 85.908 153.167,85.000 153.120,85.000 153.063 C 85.000 152.976,86.390 149.923,88.141 146.167 L 88.568 145.250 88.683 146.900 C 88.746 147.807,88.852 149.588,88.918 150.858 " stroke="none" fill="#fbfbfb" fill-rule="evenodd"></path><path id="path2" d="M191.583 0.098 C 191.217 0.130,189.454 0.237,187.667 0.336 C 174.846 1.046,160.236 3.430,147.667 6.864 C 146.979 7.052,146.267 7.243,146.083 7.290 C 133.474 10.508,113.863 18.659,101.500 25.821 C 99.175 27.168,94.859 29.755,93.750 30.466 C 90.133 32.785,89.028 33.508,87.788 34.364 C 87.034 34.885,86.055 35.560,85.612 35.864 C 82.914 37.719,78.294 41.182,75.180 43.685 C 73.766 44.821,72.379 45.934,72.097 46.158 C 70.987 47.040,65.942 51.474,63.750 53.493 C 62.464 54.678,54.702 62.444,53.497 63.752 C 52.707 64.608,51.057 66.453,49.100 68.668 C 47.992 69.922,46.547 71.607,46.158 72.099 C 45.934 72.382,44.998 73.545,44.079 74.682 C 38.402 81.709,31.418 91.787,27.573 98.500 C 22.728 106.960,19.810 112.671,16.633 119.917 C 15.817 121.777,12.961 128.816,12.609 129.833 C 12.467 130.246,12.151 131.108,11.908 131.750 C 0.857 160.948,-2.765 197.976,2.273 230.250 C 2.502 231.717,2.757 233.374,2.840 233.932 C 2.923 234.491,3.364 236.816,3.820 239.099 C 6.939 254.733,11.506 268.855,18.180 283.500 C 35.533 321.583,66.281 354.737,103.000 374.958 C 108.636 378.061,111.669 379.577,118.811 382.860 C 121.116 383.919,125.827 385.846,129.417 387.197 C 134.703 389.186,139.721 390.824,146.917 392.910 C 171.715 400.096,203.736 401.914,230.667 397.665 C 231.813 397.485,233.245 397.263,233.850 397.173 C 235.393 396.942,242.881 395.439,245.083 394.918 C 249.181 393.948,250.452 393.637,251.167 393.427 C 251.579 393.306,252.404 393.076,253.000 392.917 C 253.596 392.757,254.533 392.494,255.083 392.332 C 255.633 392.170,256.683 391.868,257.417 391.660 C 259.412 391.095,265.853 388.953,268.723 387.900 C 273.502 386.146,277.495 384.511,283.167 381.986 C 285.400 380.992,294.525 376.376,296.750 375.115 C 297.942 374.440,299.254 373.697,299.667 373.465 C 326.376 358.438,351.229 334.755,368.451 307.917 C 382.709 285.697,393.686 257.484,397.154 234.144 C 397.240 233.561,397.499 231.883,397.728 230.417 C 400.143 214.959,400.682 194.938,399.080 180.167 C 397.812 168.475,396.101 158.924,393.525 149.167 C 393.150 147.746,392.795 146.396,392.735 146.167 C 388.433 129.737,378.981 108.441,369.247 93.250 C 367.243 90.122,363.566 84.658,362.797 83.667 C 362.620 83.438,361.645 82.125,360.631 80.750 C 359.617 79.375,358.548 77.950,358.256 77.583 C 357.964 77.217,356.982 75.979,356.072 74.833 C 355.163 73.688,354.260 72.563,354.064 72.333 C 353.869 72.104,353.010 71.092,352.155 70.083 C 351.301 69.075,350.560 68.212,350.509 68.167 C 350.458 68.121,349.819 67.408,349.089 66.583 C 345.432 62.453,337.547 54.568,333.417 50.911 C 332.592 50.181,331.879 49.542,331.833 49.491 C 331.787 49.440,330.925 48.699,329.917 47.845 C 328.908 46.990,327.896 46.130,327.667 45.934 C 326.282 44.752,321.849 41.289,319.500 39.555 C 317.987 38.438,316.563 37.379,316.333 37.202 C 315.333 36.428,309.869 32.751,306.750 30.753 C 290.752 20.501,270.569 11.665,251.917 6.745 C 251.458 6.624,250.521 6.375,249.833 6.191 C 243.157 4.406,232.815 2.446,225.167 1.516 C 215.796 0.376,211.807 0.137,201.250 0.084 C 196.300 0.059,191.950 0.065,191.583 0.098 M371.000 114.935 C 371.000 114.991,370.746 115.985,370.436 117.143 C 370.126 118.302,369.217 121.763,368.416 124.833 C 367.615 127.904,366.341 132.779,365.584 135.667 C 364.828 138.554,363.328 144.292,362.253 148.417 C 361.177 152.542,360.189 156.329,360.057 156.833 C 359.840 157.658,358.850 161.447,356.985 168.583 C 356.626 169.958,355.977 172.452,355.544 174.125 L 354.755 177.167 197.200 177.167 C 47.225 177.167,39.648 177.153,39.730 176.875 C 39.832 176.526,40.702 173.232,41.634 169.667 C 42.005 168.246,42.653 165.771,43.072 164.167 C 43.492 162.563,45.226 155.925,46.925 149.417 C 48.624 142.908,50.270 136.608,50.582 135.417 C 50.893 134.225,51.569 131.637,52.083 129.667 C 52.597 127.696,53.234 125.258,53.500 124.250 C 53.766 123.242,54.401 120.804,54.912 118.833 C 55.424 116.862,55.875 115.156,55.916 115.042 C 55.994 114.822,371.000 114.715,371.000 114.935 M78.433 183.125 C 78.383 183.285,77.480 187.467,76.426 192.417 C 75.372 197.367,74.356 202.129,74.167 203.000 C 73.979 203.871,73.681 205.258,73.506 206.083 C 71.400 215.983,68.784 228.223,68.660 228.750 C 68.574 229.117,67.794 232.754,66.927 236.833 C 66.060 240.912,64.407 248.675,63.255 254.083 C 62.102 259.492,61.117 264.123,61.066 264.375 L 60.974 264.833 69.987 264.833 C 75.620 264.833,79.000 264.893,79.000 264.993 C 79.000 265.126,74.979 284.286,74.075 288.458 L 73.994 288.833 53.663 288.833 C 38.857 288.833,33.333 288.783,33.333 288.648 C 33.333 288.492,41.547 249.751,42.005 247.750 C 42.088 247.383,42.537 245.283,43.001 243.083 C 43.465 240.883,43.952 238.596,44.084 238.000 C 44.389 236.619,44.634 235.471,48.667 216.500 C 52.874 196.710,53.450 194.007,53.749 192.667 C 53.881 192.071,54.259 190.308,54.587 188.750 C 54.916 187.192,55.340 185.223,55.530 184.375 L 55.874 182.833 67.198 182.833 C 77.906 182.833,78.518 182.849,78.433 183.125 M129.612 183.208 C 129.538 183.515,126.526 197.614,124.493 207.167 C 124.229 208.404,122.658 215.754,121.000 223.500 C 119.342 231.246,117.803 238.446,117.579 239.500 C 117.356 240.554,116.081 246.517,114.746 252.750 C 113.411 258.983,112.275 264.290,112.222 264.543 L 112.124 265.003 122.511 264.960 L 132.897 264.917 134.942 255.333 C 136.067 250.063,137.138 245.037,137.323 244.167 C 138.205 240.018,138.904 236.741,142.249 221.083 C 144.227 211.825,145.914 203.912,145.999 203.500 C 146.084 203.088,146.331 201.925,146.549 200.917 C 146.767 199.908,147.724 195.427,148.677 190.958 L 150.409 182.833 162.017 182.833 L 173.626 182.833 173.407 183.875 C 173.287 184.448,171.152 194.479,168.664 206.167 C 166.175 217.854,163.916 228.467,163.643 229.750 C 162.787 233.772,162.520 235.024,162.079 237.083 C 161.843 238.183,161.435 240.096,161.172 241.333 C 154.245 273.964,153.624 276.780,153.064 278.081 C 151.152 282.523,147.561 286.701,144.333 288.235 L 143.250 288.750 117.928 288.795 C 89.859 288.844,91.639 288.912,90.110 287.744 C 88.481 286.501,86.929 283.623,86.403 280.871 C 85.965 278.585,86.042 277.813,87.253 272.333 C 87.537 271.050,87.677 270.390,93.501 243.000 C 95.985 231.313,98.087 221.450,98.170 221.083 C 98.254 220.717,98.589 219.142,98.916 217.583 C 99.243 216.025,99.618 214.262,99.750 213.667 C 99.881 213.071,100.364 210.821,100.823 208.667 C 103.496 196.115,104.893 189.547,105.499 186.667 C 105.875 184.879,106.222 183.285,106.270 183.125 C 106.351 182.851,107.056 182.833,118.029 182.833 L 129.703 182.833 129.612 183.208 M204.113 184.667 C 204.221 185.629,204.542 188.367,204.827 190.750 C 205.111 193.133,205.567 196.996,205.840 199.333 C 206.113 201.671,206.449 204.483,206.587 205.583 C 207.207 210.542,208.167 218.826,208.167 219.217 C 208.167 220.481,208.521 219.378,209.325 215.613 C 209.818 213.305,210.398 210.592,210.614 209.583 C 210.831 208.575,211.111 207.262,211.238 206.667 C 214.434 191.628,216.202 183.358,216.270 183.125 C 216.351 182.851,217.048 182.833,227.866 182.833 L 239.377 182.833 239.281 183.375 C 239.229 183.673,237.455 192.017,235.340 201.917 C 233.225 211.817,231.312 220.779,231.089 221.833 C 230.637 223.967,230.210 225.972,229.597 228.833 C 229.371 229.887,227.190 240.125,224.751 251.583 C 222.311 263.042,220.246 272.717,220.163 273.083 C 220.080 273.450,219.744 275.025,219.417 276.583 C 219.090 278.142,218.714 279.904,218.582 280.500 C 218.142 282.475,216.833 288.645,216.833 288.741 C 216.833 288.793,212.203 288.817,206.545 288.793 L 196.256 288.750 193.553 276.000 C 192.067 268.987,190.681 262.447,190.473 261.466 C 190.265 260.485,190.078 259.700,190.056 259.722 C 190.034 259.744,189.746 261.034,189.416 262.589 C 189.086 264.144,188.558 266.635,188.241 268.125 C 187.925 269.615,187.405 272.071,187.085 273.584 C 186.764 275.096,186.243 277.552,185.925 279.042 C 185.608 280.531,185.042 283.212,184.668 285.000 C 184.294 286.787,183.948 288.381,183.899 288.542 C 183.784 288.921,160.830 289.004,160.837 288.625 C 160.840 288.510,160.920 288.079,161.015 287.667 C 161.110 287.254,161.441 285.717,161.751 284.250 C 163.187 277.440,169.359 248.463,169.579 247.500 C 169.715 246.904,170.134 244.954,170.510 243.167 C 170.886 241.379,171.410 238.904,171.674 237.667 C 171.937 236.429,174.068 226.417,176.409 215.417 C 178.750 204.417,180.775 194.929,180.910 194.333 C 181.044 193.737,181.422 191.975,181.749 190.417 C 182.076 188.858,182.451 187.096,182.582 186.500 C 182.713 185.904,182.943 184.835,183.094 184.124 L 183.367 182.831 193.642 182.874 L 203.917 182.917 204.113 184.667 M290.109 183.208 C 289.926 183.938,285.167 206.401,285.167 206.533 C 285.167 206.607,280.979 206.667,275.860 206.667 L 266.553 206.667 266.191 208.292 C 265.992 209.185,265.274 212.429,264.596 215.500 C 263.917 218.571,263.310 221.290,263.246 221.542 L 263.131 222.000 272.399 222.000 C 277.496 222.000,281.667 222.056,281.667 222.125 C 281.666 222.194,281.550 222.813,281.408 223.500 C 281.125 224.873,278.961 235.292,277.657 241.561 C 277.202 243.749,276.788 245.605,276.738 245.686 C 276.687 245.768,272.587 245.833,267.420 245.833 L 258.193 245.833 258.098 246.292 C 258.009 246.718,257.724 248.037,255.752 257.167 C 255.346 259.046,254.823 261.438,254.590 262.484 C 254.357 263.529,254.167 264.485,254.167 264.609 C 254.167 264.794,255.769 264.833,263.428 264.833 C 272.171 264.833,272.684 264.850,272.600 265.125 C 272.552 265.285,272.070 267.517,271.530 270.083 C 270.991 272.650,269.882 277.919,269.066 281.792 L 267.583 288.833 246.975 288.833 L 226.366 288.833 226.595 287.792 C 226.884 286.472,227.425 283.956,228.484 279.000 C 228.944 276.846,229.769 272.983,230.318 270.417 C 230.867 267.850,232.599 259.712,234.167 252.333 C 235.735 244.954,237.087 238.617,237.171 238.250 C 237.255 237.883,237.698 235.821,238.155 233.667 C 238.613 231.512,239.587 226.938,240.320 223.500 C 241.052 220.063,243.270 209.637,245.248 200.333 C 247.226 191.029,248.884 183.285,248.933 183.125 C 249.018 182.849,250.148 182.833,269.613 182.833 L 290.203 182.833 290.109 183.208 M354.291 183.042 C 354.248 183.156,353.096 188.519,351.732 194.958 L 349.250 206.666 335.225 206.666 L 321.200 206.667 321.252 207.208 C 321.281 207.506,321.647 208.762,322.066 210.000 C 322.484 211.237,324.033 215.963,325.508 220.500 C 326.982 225.037,328.679 230.250,329.278 232.083 C 329.877 233.917,330.842 236.879,331.422 238.667 C 332.001 240.454,333.014 243.567,333.672 245.583 C 337.323 256.771,337.396 257.076,337.396 261.083 C 337.396 265.360,336.352 271.066,334.561 276.583 C 332.339 283.430,328.171 287.994,323.529 288.666 C 321.242 288.997,277.999 288.879,278.006 288.542 C 278.009 288.381,279.122 283.037,280.478 276.667 L 282.945 265.083 297.473 265.041 L 312.000 264.998 312.000 264.494 C 312.000 264.217,311.822 263.561,311.605 263.037 C 311.388 262.512,311.055 261.596,310.865 261.000 C 310.450 259.695,306.426 247.308,304.829 242.417 C 301.853 233.306,300.719 229.826,298.990 224.500 C 297.964 221.338,296.877 218.150,296.575 217.417 C 295.714 215.323,294.980 212.115,294.669 209.083 C 294.400 206.467,296.934 195.886,298.750 192.042 C 301.167 186.927,304.719 183.657,308.554 183.016 C 310.032 182.770,354.384 182.794,354.291 183.042 " stroke="none" fill="#ecbc3c" fill-rule="evenodd"></path><path id="path3" d="M212.168 140.998 C 210.517 143.471,209.167 145.534,209.167 145.582 C 209.167 145.629,210.491 147.655,212.110 150.084 L 215.054 154.500 218.037 154.500 C 220.378 154.500,220.993 154.455,220.896 154.292 C 220.827 154.177,219.510 152.191,217.969 149.877 C 216.428 147.564,215.167 145.632,215.167 145.583 C 215.167 145.535,216.446 143.578,218.010 141.235 C 219.574 138.892,220.895 136.868,220.945 136.737 C 221.021 136.538,220.571 136.500,218.103 136.500 L 215.170 136.500 212.168 140.998 M220.825 141.013 L 217.813 145.526 218.869 147.138 C 219.449 148.025,220.785 150.043,221.837 151.623 L 223.750 154.497 226.714 154.498 C 229.654 154.500,229.677 154.497,229.495 154.157 C 229.394 153.969,228.098 152.000,226.614 149.782 C 225.131 147.565,223.894 145.699,223.865 145.637 C 223.837 145.575,225.098 143.601,226.667 141.249 C 228.236 138.898,229.561 136.868,229.611 136.737 C 229.688 136.538,229.238 136.500,226.769 136.500 L 223.836 136.500 220.825 141.013 M229.488 141.018 L 226.473 145.536 229.445 150.014 L 232.417 154.492 235.375 154.496 C 237.002 154.498,238.333 154.461,238.333 154.414 C 238.333 154.367,237.072 152.436,235.531 150.123 C 233.990 147.809,232.679 145.832,232.618 145.729 C 232.556 145.626,233.817 143.571,235.420 141.162 C 237.022 138.753,238.333 136.718,238.333 136.641 C 238.333 136.563,237.022 136.500,235.418 136.500 L 232.503 136.500 229.488 141.018 " stroke="none" fill="#14b3b3" fill-rule="evenodd"></path><path id="path4" d="M88.442 124.292 C 88.400 124.360,89.764 124.397,91.474 124.374 C 97.217 124.295,97.782 124.237,93.135 124.202 C 90.596 124.182,88.485 124.223,88.442 124.292 M117.719 124.291 C 119.076 124.319,121.251 124.319,122.552 124.291 C 123.853 124.263,122.742 124.240,120.083 124.240 C 117.425 124.240,116.361 124.263,117.719 124.291 M131.875 124.291 C 133.227 124.319,135.440 124.319,136.792 124.291 C 138.144 124.263,137.037 124.240,134.333 124.240 C 131.629 124.240,130.523 124.263,131.875 124.291 M156.053 124.292 C 158.420 124.318,162.245 124.318,164.553 124.292 C 166.861 124.265,164.925 124.244,160.250 124.244 C 155.575 124.244,153.686 124.265,156.053 124.292 M182.609 124.292 C 182.539 124.405,189.084 124.403,197.000 124.287 C 198.696 124.262,196.169 124.225,191.385 124.204 C 186.601 124.184,182.652 124.223,182.609 124.292 M254.720 124.292 C 257.087 124.318,260.912 124.318,263.220 124.292 C 265.528 124.265,263.592 124.244,258.917 124.244 C 254.242 124.244,252.353 124.265,254.720 124.292 M283.552 124.291 C 284.910 124.319,287.085 124.319,288.385 124.291 C 289.686 124.263,288.575 124.240,285.917 124.240 C 283.258 124.240,282.194 124.263,283.552 124.291 M301.552 124.291 C 302.910 124.319,305.085 124.319,306.385 124.291 C 307.686 124.263,306.575 124.240,303.917 124.240 C 301.258 124.240,300.194 124.263,301.552 124.291 M325.583 124.287 C 333.290 124.403,339.500 124.405,339.500 124.292 C 339.500 124.223,335.694 124.184,331.042 124.204 C 326.390 124.225,323.933 124.262,325.583 124.287 M97.872 129.000 C 97.872 129.321,97.906 129.452,97.948 129.292 C 97.990 129.131,97.990 128.869,97.948 128.708 C 97.906 128.548,97.872 128.679,97.872 129.000 M99.039 153.333 C 99.039 153.654,99.073 153.785,99.115 153.625 C 99.157 153.465,99.157 153.202,99.115 153.042 C 99.073 152.881,99.039 153.012,99.039 153.333 M80.444 162.789 C 80.400 162.859,82.321 162.895,84.711 162.869 C 88.101 162.833,89.090 162.869,89.208 163.036 C 89.323 163.199,89.343 163.191,89.291 163.000 C 89.216 162.727,80.610 162.521,80.444 162.789 M99.539 164.000 C 99.539 164.321,99.573 164.452,99.615 164.292 C 99.657 164.131,99.657 163.869,99.615 163.708 C 99.573 163.548,99.539 163.679,99.539 164.000 M59.750 182.955 C 70.115 183.070,78.500 183.072,78.500 182.958 C 78.500 182.890,73.381 182.851,67.125 182.872 C 60.869 182.893,57.550 182.930,59.750 182.955 M112.125 182.958 C 115.356 182.984,120.644 182.984,123.875 182.958 C 127.106 182.933,124.462 182.912,118.000 182.912 C 111.537 182.912,108.894 182.933,112.125 182.958 M156.125 182.958 C 159.356 182.984,164.644 182.984,167.875 182.958 C 171.106 182.933,168.462 182.912,162.000 182.912 C 155.537 182.912,152.894 182.933,156.125 182.958 M193.491 182.958 C 201.418 182.992,203.765 183.049,203.879 183.210 C 203.986 183.362,204.007 183.350,203.957 183.167 C 203.897 182.948,202.600 182.916,193.569 182.915 L 183.250 182.913 193.491 182.958 M222.042 182.958 C 225.227 182.984,230.440 182.984,233.625 182.958 C 236.810 182.933,234.204 182.912,227.833 182.912 C 221.463 182.912,218.856 182.933,222.042 182.958 M259.195 182.958 C 264.849 182.983,274.149 182.983,279.862 182.958 C 285.575 182.934,280.950 182.914,269.583 182.914 C 258.217 182.914,253.542 182.934,259.195 182.958 M317.333 182.957 C 338.705 183.071,354.333 183.071,354.333 182.958 C 354.333 182.890,344.190 182.851,331.792 182.873 C 319.394 182.895,312.887 182.933,317.333 182.957 M267.804 222.125 C 270.400 222.151,274.600 222.151,277.137 222.125 C 279.674 222.099,277.550 222.078,272.417 222.078 C 267.283 222.078,265.207 222.099,267.804 222.125 M262.804 245.792 C 265.400 245.817,269.600 245.817,272.137 245.792 C 274.674 245.766,272.550 245.745,267.417 245.745 C 262.283 245.745,260.207 245.766,262.804 245.792 " stroke="none" fill="#9c8353" fill-rule="evenodd"></path></g></svg>